<?xml version="1.0" encoding="UTF-8"?>
<svg width="170px" height="178px" viewBox="0 0 170 178" version="1.1" xmlns="http://www.w3.org/2000/svg" xmlns:xlink="http://www.w3.org/1999/xlink">
    <!-- Generator: Sketch 63.1 (92452) - https://sketch.com -->
    <title>Group 9</title>
    <desc>Created with Sketch.</desc>
    <defs>
        <path d="M39.3478875,102.377584 L4.05909138,83.1331091 L4.05909138,83.1331091 C1.54701753,81.6073915 0,78.7911353 0,75.7437674 L0,30.9300002 C0,27.8826322 1.54701753,25.066376 4.05909138,23.5406584 L40.9300591,1.14693621 C43.4479462,-0.382312069 46.5520538,-0.382312069 49.0699409,1.14693621 L85.9409086,23.5406584 C88.4529825,25.066376 90,27.8826322 90,30.9300002 L90,75.7437674 C90,78.7911353 88.4529825,81.6073915 85.9409086,83.1331091 L50.9657226,102.364256 C49.7847598,103.01361 48.4588878,103.354088 47.1111736,103.354088 L43.1780973,103.354088 C41.8397796,103.354088 40.5228461,103.018339 39.3478875,102.377584 Z" id="path-1"></path>
        <filter x="-66.7%" y="-58.1%" width="233.3%" height="216.1%" filterUnits="objectBoundingBox" id="filter-2">
            <feOffset dx="0" dy="0" in="SourceAlpha" result="shadowOffsetOuter1"></feOffset>
            <feGaussianBlur stdDeviation="20" in="shadowOffsetOuter1" result="shadowBlurOuter1"></feGaussianBlur>
            <feColorMatrix values="0 0 0 0 0.450980392   0 0 0 0 0.525490196   0 0 0 0 0.62745098  0 0 0 0.24 0" type="matrix" in="shadowBlurOuter1"></feColorMatrix>
        </filter>
    </defs>
    <g id="Page-1" stroke="none" stroke-width="1" fill="none" fill-rule="evenodd">
        <g id="Landingpage" transform="translate(-1053.000000, -3787.000000)">
            <g id="Group-9" transform="translate(1093.000000, 3824.073308)">
                <g id="Path-Copy-6">
                    <use fill="black" fill-opacity="1" filter="url(#filter-2)" xlink:href="#path-1"></use>
                    <use fill="#69D6D4" fill-rule="evenodd" xlink:href="#path-1"></use>
                </g>
                <g id="Group-29" transform="translate(21.000000, 25.926692)" stroke="#FFFFFF" stroke-width="1.5">
                    <g id="Group-15">
                        <path d="M42.1875,14.34375 L44.4023438,14.34375 C46.4410511,14.34375 48.09375,15.8992313 48.09375,17.8180147 L48.09375,22.6819853 C48.09375,24.6007687 46.4410511,26.15625 44.4023438,26.15625 L42.1875,26.15625" id="Path" fill-opacity="0.16" fill="#FFFFFF"></path>
                        <path d="M0,14.34375 L2.21484375,14.34375 C4.25355113,14.34375 5.90625,15.8992313 5.90625,17.8180147 L5.90625,22.6819853 C5.90625,24.6007687 4.25355113,26.15625 2.21484375,26.15625 L0,26.15625" id="Path-Copy-8" fill-opacity="0.16" fill="#FFFFFF" transform="translate(2.953125, 20.250000) scale(-1, 1) translate(-2.953125, -20.250000) "></path>
                        <path d="M23.625,0 L24.46875,0 C34.7205357,-1.88322248e-15 43.03125,8.31071433 43.03125,18.5625 L43.03125,23.4766484 C43.03125,31.0144248 36.9206748,37.125 29.3828984,37.125 L18.7108516,37.125 C11.1730752,37.125 5.0625,31.0144248 5.0625,23.4766484 L5.0625,18.5625 C5.0625,8.31071433 13.3732143,1.88322248e-15 23.625,0 Z" id="Rectangle"></path>
                        <path d="M15.4850462,11.8125 L31.7649538,11.8125 C35.1912158,11.8125 37.96875,14.5900342 37.96875,18.0162962 L37.96875,21.9375 C37.96875,27.5293831 33.4356331,32.0625 27.84375,32.0625 L19.40625,32.0625 C13.8143669,32.0625 9.28125,27.5293831 9.28125,21.9375 L9.28125,18.0162962 C9.28125,14.5900342 12.0587842,11.8125 15.4850462,11.8125 Z" id="Rectangle" fill-opacity="0.16" fill="#FFFFFF"></path>
                        <path d="M39.2885415,37.3954126 C42.9304379,37.9744247 44.71875,40.9238434 44.71875,44.8091306 L44.71875,50.8901315 C44.71875,51.5724819 44.2420406,52.1574922 43.5855374,52.280814 C43.1810592,52.3567938 42.8455844,52.4179435 42.5791131,52.4642632 C36.9446827,53.4436754 30.4878607,54 23.625,54" id="Path" stroke-linecap="round"></path>
                        <path d="M16.875,53.15625 C12.5129593,52.9318034 8.39413723,52.4818437 4.64524643,51.8459649 C4.38084646,51.801118 4.04771052,51.7418421 3.64583863,51.6681373 C3.00011898,51.5497239 2.53125,50.9878858 2.53125,50.3325602 L2.53125,44.4926278 C2.53125,40.7872099 5.23460875,37.7120404 8.7800409,37.125" id="Path" stroke-linecap="round"></path>
                        <path d="M40.5,32.0625 C40.5,38.2142458 35.4846366,43.03125 29.2978723,43.03125 L18.7958777,43.03125 C12.6091134,43.03125 7.59375,38.2142458 7.59375,32.0625" id="Path" stroke-linecap="round"></path>
                    </g>
                </g>
            </g>
        </g>
    </g>
</svg>