<?xml version="1.0" encoding="UTF-8"?>
<svg width="288px" height="78px" viewBox="0 0 288 78" version="1.1" xmlns="http://www.w3.org/2000/svg" xmlns:xlink="http://www.w3.org/1999/xlink">
    <!-- Generator: Sketch 63.1 (92452) - https://sketch.com -->
    <title>Group 2</title>
    <desc>Created with Sketch.</desc>
    <defs>
        <polygon id="path-1" points="0.0193728571 0.426382609 283.512129 0.426382609 283.512129 70.8611652 0.0193728571 70.8611652"></polygon>
    </defs>
    <g id="Page-1" stroke="none" stroke-width="1" fill="none" fill-rule="evenodd">
        <g id="Landingpage" transform="translate(-880.000000, -3259.000000)">
            <g id="Group-2" transform="translate(882.000000, 3264.000000)">
                <g id="Group-6">
                    <g id="Group-3">
                        <mask id="mask-2" fill="white">
                            <use xlink:href="#path-1"></use>
                        </mask>
                        <g id="Clip-2"></g>
                        <path d="M283.51223,70.8611652 L0.0193728571,70.8611652 L20.18033,68.9046435 C20.18033,68.9046435 30.4479443,66.165513 32.4765157,63.0350783 C33.4908014,61.4698609 39.5765157,63.0350783 39.5765157,63.0350783 L43.6336586,52.0785565 L50.7336586,63.0350783 L56.8193729,66.165513 L61.8908014,66.165513 L66.96223,53.6437739 L74.06223,66.165513 L78.1193729,69.2959478 L83.1908014,61.4698609 L89.2765157,66.165513 L95.36223,64.6002957 L105.505087,63.0350783 L110.576516,66.165513 L122.747944,50.5133391 L128.833659,59.9046435 L135.933659,59.9046435 L145.06223,50.5133391 L149.119373,48.9481217 L157.233659,42.6872522 L164.333659,42.6872522 L171.433659,45.817687 L177.519373,39.5568174 L183.605087,50.5133391 L193.747944,36.4263826 L198.819373,42.6872522 L212.005087,23.9046435 L217.076516,23.9046435 L222.147944,39.5568174 L228.233659,23.9046435 L234.319373,50.5133391 L240.405087,19.2089913 L243.447944,23.9046435 L248.519373,30.165513 L257.647944,33.2959478 L260.690801,6.68725217 L267.790801,23.9046435 L276.919373,0.426382609 L283.005087,14.5133391 L283.51223,70.8611652 Z" id="Fill-1" fill="#69D6D4" mask="url(#mask-2)"></path>
                    </g>
                    <path d="M0,70.8607281 C5.30498208,71.1740899 13.1863799,70.8607281 13.1863799,70.8607281 L27.3870968,67.7113624 L33.4731183,62.9873138 L39.5591398,62.9873138 L43.6164875,51.9645339 L49.702509,62.9873138 L54.7741935,66.1366795 L61.874552,66.1366795 L66.9462366,53.5392167 L74.046595,67.7113624 L78.1039427,69.2860452 L83.1756272,61.412631 L89.2616487,67.7113624 L95.3476703,64.5619967 L105.491039,64.5619967 L110.562724,66.1366795 L122.734767,50.3898511 L128.820789,61.412631 L134.90681,61.412631 L145.050179,50.3898511 L150.121864,48.8151682 L157.222222,42.5164368 L164.322581,42.5164368 L171.422939,47.2404854 L177.508961,40.941754 L183.594982,51.9645339 L193.738351,36.2177054 L198.810036,42.5164368 L211.996416,23.6202427 L217.0681,25.1949255 L222.139785,39.3670711 L228.225806,25.1949255 L234.311828,50.3898511 L240.397849,20.470877 L243.44086,23.6202427 L248.512545,31.4936569 L257.641577,33.0683398 L260.684588,7.87341423 L267.784946,23.6202427 L276.913978,0 L283,15.7468285" id="Stroke-4" stroke="#799FDD" stroke-width="3" stroke-linecap="square"></path>
                </g>
                <line x1="283.5" y1="17.5" x2="284" y2="69" id="Line-4" stroke="#799FDD" stroke-width="3" stroke-linecap="square"></line>
            </g>
        </g>
    </g>
</svg>