<?xml version="1.0" encoding="UTF-8"?>
<svg width="106px" height="30px" viewBox="0 0 106 30" version="1.1" xmlns="http://www.w3.org/2000/svg" xmlns:xlink="http://www.w3.org/1999/xlink">
    <!-- Generator: Sketch 63.1 (92452) - https://sketch.com -->
    <title>Group 17</title>
    <desc>Created with Sketch.</desc>
    <defs>
        <polygon id="path-1" points="0 0.176154337 21.933969 0.176154337 21.933969 29.0624703 0 29.0624703"></polygon>
        <polygon id="path-3" points="0.0892918033 0.0351574468 17.758918 0.0351574468 17.758918 26.9722532 0.0892918033 26.9722532"></polygon>
    </defs>
    <g id="Page-1" stroke="none" stroke-width="1" fill="none" fill-rule="evenodd">
        <g id="Landingpage" transform="translate(-315.000000, -3253.000000)">
            <g id="Group-17" transform="translate(315.000000, 3253.000000)">
                <g id="Group-3">
                    <mask id="mask-2" fill="white">
                        <use xlink:href="#path-1"></use>
                    </mask>
                    <g id="Clip-2"></g>
                    <path d="M21.4958282,12.539846 L12.1170113,12.539846 C11.8753211,12.539846 11.6788704,12.7278626 11.6788704,12.9594729 L11.6788704,17.3479104 C11.6788704,17.5795207 11.8753211,17.7678339 12.1170113,17.7678339 L15.7758282,17.7678339 L15.7758282,23.2203147 C15.7758282,23.2203147 14.9543915,23.4881049 12.6834338,23.4881049 C10.0037718,23.4881049 6.26067324,22.5512841 6.26067324,14.6735673 C6.26067324,6.79436767 10.1583915,5.75760746 13.8175183,5.75760746 C16.9848986,5.75760746 18.3498282,6.29140848 19.2177437,6.54852264 C19.4907296,6.62829624 19.7429549,6.36851307 19.7429549,6.13690274 L20.7893493,1.8967433 C20.7893493,1.78820376 20.7509268,1.65771907 20.6220254,1.56904879 C20.2690958,1.32824522 18.1180535,0.176124681 12.6834338,0.176124681 C6.42210986,0.176124681 -3.09859155e-05,2.72561767 -3.09859155e-05,14.9807994 C-3.09859155e-05,27.2362777 7.35292676,29.0624703 13.5491803,29.0624703 C18.6795183,29.0624703 21.7917437,26.9643358 21.7917437,26.9643358 C21.9200254,26.896721 21.933969,26.725015 21.933969,26.6464276 L21.933969,12.9594729 C21.933969,12.7278626 21.7378282,12.539846 21.4958282,12.539846" id="Fill-1" fill="#100F0F" mask="url(#mask-2)"></path>
                </g>
                <path d="M66,2.40202982 C66,2.17968444 65.811688,2 65.5759963,2 L60.433027,2 C60.1979388,2 60.0072126,2.17968444 60.0072126,2.40202982 C60.0072126,2.40315991 60.0084197,11.7069153 60.0084197,11.7069153 L51.9918821,11.7069153 L51.9918821,2.40202982 C51.9918821,2.17968444 51.8026647,2 51.5675765,2 L46.4246073,2 C46.1907262,2 46,2.17968444 46,2.40202982 L46,27.5968401 C46,27.8189029 46.1907262,28 46.4246073,28 L51.5675765,28 C51.8026647,28 51.9918821,27.8189029 51.9918821,27.5968401 L51.9918821,16.8200113 L60.0084197,16.8200113 C60.0084197,16.8200113 59.9945377,27.5959925 59.9945377,27.5968401 C59.9945377,27.8189029 60.185264,28 60.420654,28 L65.5756945,28 C65.8110845,28 65.9993964,27.8189029 66,27.5968401 L66,2.40202982 Z" id="Fill-4" fill="#100F0F"></path>
                <path d="M30,5.49873863 C30,3.56347419 28.4329071,2 26.4995222,2 C24.5680484,2 23,3.56347419 23,5.49873863 C23,7.43179566 24.5680484,9 26.4995222,9 C28.4329071,9 30,7.43179566 30,5.49873863" id="Fill-6" fill="#100F0F"></path>
                <path d="M29,22.2037541 L29,10.4069351 C29,10.1831208 28.8098113,10 28.5743396,10 L23.4458868,10 C23.2104151,10 23,10.2304055 23,10.4542198 L23,27.3554951 C23,27.8521278 23.3260377,28 23.7480755,28 L28.3687547,28 C28.8756226,28 29,27.7635764 29,27.347471 L29,22.2037541 Z" id="Fill-8" fill="#100F0F"></path>
                <path d="M84.5834155,10 L79.6117423,10 C79.3836057,10 79.1980977,10.1881771 79.1980977,10.4199383 L79.1980977,23.2966723 C79.1980977,23.2966723 77.9348206,24.2225391 76.1420666,24.2225391 C74.3493126,24.2225391 73.873636,23.4076939 73.873636,21.6493126 L73.873636,10.4199383 C73.873636,10.1881771 73.688422,10 73.4602853,10 L68.4142326,10 C68.186684,10 68,10.1881771 68,10.4199383 L68,22.4994963 C68,27.7222214 70.905802,29 74.9031907,29 C78.1829486,29 80.827099,27.1850773 80.827099,27.1850773 C80.827099,27.1850773 80.9526329,28.1415707 81.0099611,28.2549482 C81.0667013,28.3680311 81.2151665,28.482292 81.3756853,28.482292 L84.5857674,28.4681567 C84.813316,28.4681567 85,28.2796851 85,28.0488073 L84.9982361,10.4199383 C84.9982361,10.1881771 84.8124341,10 84.5834155,10" id="Fill-10" fill="#100F0F"></path>
                <g id="Group-14" transform="translate(88.000000, 2.000000)">
                    <mask id="mask-4" fill="white">
                        <use xlink:href="#path-3"></use>
                    </mask>
                    <g id="Clip-13"></g>
                    <path d="M8.75673443,22.3187745 C7.02578361,22.2673596 5.85165246,21.5030298 5.85165246,21.5030298 L5.85165246,13.3912532 C5.85165246,13.3912532 7.00984918,12.7001681 8.43096393,12.5766574 C10.2280131,12.4201149 11.9595541,12.9483383 11.9595541,17.1212745 C11.9595541,21.5214128 11.178177,22.3900085 8.75673443,22.3187745 M10.7249311,7.8867 C7.89066885,7.8867 5.96289836,9.11778511 5.96289836,9.11778511 L5.96289836,0.443891489 C5.96289836,0.217838298 5.77699672,0.0351574468 5.54801311,0.0351574468 L0.504767213,0.0351574468 C0.275488525,0.0351574468 0.0892918033,0.217838298 0.0892918033,0.443891489 L0.0892918033,26.0588489 C0.0892918033,26.2849021 0.275488525,26.4687319 0.505652459,26.4687319 L4.00443934,26.4687319 C4.16201311,26.4687319 4.28122623,26.3894553 4.36945574,26.2510085 C4.45650492,26.1134234 4.58191475,25.0701894 4.58191475,25.0701894 C4.58191475,25.0701894 6.64394754,26.9722532 10.5475869,26.9722532 C15.1308,26.9722532 17.7590951,24.7094234 17.7590951,16.813934 C17.7590951,8.91844468 13.561259,7.8867 10.7249311,7.8867" id="Fill-12" fill="#100F0F" mask="url(#mask-4)"></path>
                </g>
                <path d="M44.5166283,10.2024874 L40.766978,10.2024874 C40.766978,10.2024874 40.7614052,5.28070346 40.7614052,5.2795375 C40.7614052,5.09327633 40.6649068,5 40.4478589,5 L35.3384324,5 C35.1398628,5 35.0330987,5.08715507 35.0330987,5.27691411 L35.0330987,10.363972 C35.0330987,10.363972 32.4725193,10.9781384 32.2991742,11.0279829 C32.1270024,11.077536 32,11.2355227 32,11.4241158 L32,14.6208706 C32,14.8505635 32.1847841,15.0362417 32.4132711,15.0362417 L35.0330987,15.0362417 L35.0330987,22.7268752 C35.0330987,28.4388846 39.0652046,29 41.7856369,29 C43.0286765,29 44.5157484,28.6032841 44.7612472,28.5132141 C44.9096611,28.4589973 44.996187,28.3062573 44.996187,28.1406918 L45,24.6238826 C45,24.3944812 44.8052434,24.208803 44.585849,24.208803 C44.3673345,24.208803 43.8082893,24.2974155 43.2328189,24.2974155 C41.3911376,24.2974155 40.766978,23.4462689 40.766978,22.3444423 C40.766978,21.2437816 40.7666847,15.0362417 40.7666847,15.0362417 L44.5166283,15.0362417 C44.7451153,15.0362417 44.930486,14.8505635 44.930486,14.6208706 L44.930486,10.6166926 C44.930486,10.3872911 44.7451153,10.2024874 44.5166283,10.2024874" id="Fill-15" fill="#100F0F"></path>
            </g>
        </g>
    </g>
</svg>