<?xml version="1.0" encoding="UTF-8"?>
<svg width="155px" height="40px" viewBox="0 0 155 40" version="1.1" xmlns="http://www.w3.org/2000/svg" xmlns:xlink="http://www.w3.org/1999/xlink">
    <!-- Generator: sketchtool 60 (101010) - https://sketch.com -->
    <title>AB8EFB39-F0A1-4947-A686-667A0E89CA03</title>
    <desc>Created with sketchtool.</desc>
    <defs>
        <linearGradient x1="50%" y1="0%" x2="50%" y2="156.737419%" id="linearGradient-1">
            <stop stop-color="#718AF4" offset="0%"></stop>
            <stop stop-color="#38277F" offset="99.9727331%"></stop>
            <stop stop-color="#2E1B79" offset="100%"></stop>
        </linearGradient>
    </defs>
    <g id="Page-1" stroke="none" stroke-width="1" fill="none" fill-rule="evenodd">
        <g id="Landingpage" transform="translate(-48.000000, -25.000000)">
            <g id="Group-4" transform="translate(48.000000, 25.000000)">
                <path d="M9.00584795,40 C4.03205547,40 0,35.9161767 0,30.8785254 C0,30.8389792 0,30.7994918 0.000743924569,30.7600647 L0,13.0938907 C0,11.9105424 0.623657456,10.8170038 1.63622129,10.2248941 L18.3613675,0.444648984 C19.3752234,-0.148216328 20.6247766,-0.148216328 21.6386325,0.444648984 L38.3637787,10.2248941 C39.3763425,10.8170038 40,11.9105424 40,13.0938907 L40,30.7600647 C40,30.7994918 40,30.8389792 40,30.8785254 C40,35.9161767 35.9679445,40 30.994152,40 C27.4035834,40 24.3037879,37.8717723 22.8573646,34.7928427 L17.1426362,34.7928426 C15.6962121,37.8717723 12.5964166,40 9.00584795,40 Z M23.6275397,29.9629423 L27.5223781,32.1720552 C27.5712621,32.1997817 27.6248913,32.2178737 27.680427,32.2253735 C27.9231673,32.2581544 28.1461846,32.0854222 28.17855,31.8395653 L28.4848194,29.5130526 C28.517242,29.2667615 28.4474861,29.0178703 28.2921396,28.8255646 L24.857165,24.5733601 C24.9438798,23.7541251 24.9883615,22.9220897 24.9883615,22.0795317 C24.9883615,17.0572555 23.4079017,12.4088548 20.7232427,8.61670503 C20.6773602,8.5518948 20.623981,8.47807953 20.5631052,8.39525921 C20.522297,8.33974049 20.4736884,8.29055497 20.4188205,8.24926216 C20.1078383,8.01522111 19.6682308,8.08058047 19.4369315,8.39524785 C19.3752172,8.47920496 19.3211549,8.55397186 19.2747446,8.61954855 C16.5913084,12.4111784 15.0116385,17.0585107 15.0116385,22.0795317 C15.0116385,22.9220897 15.0561202,23.7541251 15.142835,24.5733601 L11.7078604,28.8255646 C11.5525139,29.0178703 11.482758,29.2667615 11.5151806,29.5130526 L11.82145,31.8395653 C11.8538154,32.0854222 12.0768327,32.2581544 12.319573,32.2253735 C12.3751087,32.2178737 12.4287379,32.1997817 12.4776219,32.1720552 L16.3724603,29.9629423 C16.5858238,30.5590505 16.8226937,31.1437481 17.0819355,31.715886 L22.9180645,31.715886 C23.1773063,31.1437481 23.4141762,30.5590505 23.6275397,29.9629423 Z M20,19.9203892 C18.8367795,19.9203892 17.8938029,18.9653057 17.8938029,17.7871505 C17.8938029,16.6089953 18.8367795,15.6539119 20,15.6539119 C21.1632205,15.6539119 22.1061971,16.6089953 22.1061971,17.7871505 C22.1061971,18.9653057 21.1632205,19.9203892 20,19.9203892 Z" id="Shape-Copy-5" fill="url(#linearGradient-1)"></path>
                <path d="M64.0880568,28.7509728 L63.3247478,26.9662776 L57.7546551,26.9662776 L56.9913461,28.7509728 L54,28.7509728 L60.085842,14.8054475 L61.0141908,14.8054475 L67.0794029,28.7509728 L64.0880568,28.7509728 Z M62.3551391,24.6627756 L60.5397014,20.0350195 L58.7242638,24.6627756 L62.3551391,24.6627756 Z M76.7593206,13.1867704 L79.544367,13.1867704 L79.544367,28.7509728 L76.9862503,28.7509728 L76.9862503,27.4850843 C76.3054612,28.460441 75.1089228,29 73.7060846,29 C70.8591483,29 68.7548911,26.7172503 68.7548911,23.6251621 C68.7548911,20.5330739 70.8591483,18.2503243 73.7060846,18.2503243 C75.0057729,18.2503243 76.0166416,18.6653696 76.7593206,19.4747082 L76.7593206,13.1867704 Z M76.8005806,23.6251621 C76.8005806,21.7989624 75.6246721,20.7821012 74.2218339,20.7821012 C72.7364759,20.7821012 71.5811974,21.923476 71.5811974,23.6044099 C71.5811974,25.3268482 72.7158459,26.4474708 74.2218339,26.4474708 C75.6246721,26.4474708 76.8005806,25.4721141 76.8005806,23.6251621 Z M99.0028919,22.3800259 L99.0028919,28.7509728 L96.2178456,28.7509728 L96.2178456,22.7743191 C96.2178456,21.5499351 95.4957965,20.7821012 94.4024079,20.7821012 C93.3090194,20.7821012 92.5250804,21.5706874 92.5250804,22.7120623 L92.5250804,28.7509728 L89.740034,28.7509728 L89.740034,22.7743191 C89.740034,21.5499351 89.017985,20.7821012 87.9245964,20.7821012 C86.7899479,20.7821012 86.0472689,21.5499351 86.0472689,22.7743191 L86.0472689,28.7509728 L83.2622225,28.7509728 L83.2622225,18.4785992 L85.8203392,18.4785992 L85.8203392,19.3916991 C86.5011283,18.6653696 87.5326269,18.2503243 88.7085354,18.2503243 C90.0494836,18.2503243 91.0603523,18.7483787 91.7411414,19.7237354 C92.5457104,18.8106355 93.7422488,18.2503243 95.145087,18.2503243 C97.5381638,18.2503243 99.0028919,19.8897536 99.0028919,22.3800259 Z M102.617598,28.7509728 L102.617598,18.4785992 L105.402644,18.4785992 L105.402644,28.7509728 L102.617598,28.7509728 Z M102.225628,14.7431907 C102.225628,13.7470817 103.009567,13 103.999806,13 C104.990045,13 105.794613,13.7470817 105.794613,14.7431907 C105.794613,15.7185473 104.990045,16.4656291 103.999806,16.4656291 C103.009567,16.4656291 102.225628,15.7185473 102.225628,14.7431907 Z M118.507137,22.3800259 L118.507137,28.7509728 L115.742721,28.7509728 L115.742721,22.7535668 C115.742721,21.5706874 114.979412,20.7613489 113.844763,20.7613489 C112.710115,20.7613489 111.905546,21.5706874 111.905546,22.7535668 L111.905546,28.7509728 L109.1205,28.7509728 L109.1205,18.4785992 L111.678616,18.4785992 L111.678616,19.4124514 C112.400665,18.6861219 113.452794,18.2503243 114.669962,18.2503243 C117.042409,18.2503243 118.507137,19.8897536 118.507137,22.3800259 Z M132.870059,24.7250324 C132.870059,27.0907912 131.013361,28.7509728 128.393355,28.7509728 L122.328143,28.7509728 L122.328143,15.0544747 L127.155556,15.0544747 C129.672413,15.0544747 131.467221,16.6316472 131.467221,18.8728923 C131.467221,19.8690013 131.137141,20.6990921 130.456352,21.3424125 C131.96234,21.9027237 132.870059,23.0648508 132.870059,24.7250324 Z M126.928627,17.461738 L125.010039,17.461738 L125.010039,20.5953307 L126.928627,20.5953307 C128.063275,20.5953307 128.702804,19.9935149 128.702804,19.0181582 C128.702804,18.0428016 128.063275,17.461738 126.928627,17.461738 Z M130.126272,24.6212711 C130.126272,23.5629053 129.404223,22.8988327 128.187055,22.8988327 L125.010039,22.8988327 L125.010039,26.3437095 L128.187055,26.3437095 C129.404223,26.3437095 130.126272,25.7003891 130.126272,24.6212711 Z M142.178637,18.4785992 L142.178637,20.9481193 L141.435958,20.9481193 C139.76493,20.9481193 138.692172,21.8612192 138.692172,23.6251621 L138.692172,28.7509728 L135.907125,28.7509728 L135.907125,18.4785992 L138.465242,18.4785992 L138.465242,19.7029831 C139.146031,18.8521401 140.13627,18.3540856 141.270918,18.3540856 C141.621628,18.3540856 141.910447,18.3955901 142.178637,18.4785992 Z M144.044384,23.6044099 C143.982494,20.6783398 146.519981,18.1880674 149.511327,18.2503243 C152.502673,18.2088197 155.06079,20.6783398 154.9989,23.6044099 C155.06079,26.5304799 152.482043,29.0415045 149.490697,28.9792477 C146.499351,29.0415045 143.982494,26.5304799 144.044384,23.6044099 Z M152.151964,23.6251621 C152.151964,22.0272374 151.017315,20.8028534 149.511327,20.8028534 C147.964079,20.8028534 146.870691,21.9857328 146.870691,23.6251621 C146.870691,25.2230869 147.964079,26.4059663 149.511327,26.4059663 C151.017315,26.4059663 152.151964,25.2230869 152.151964,23.6251621 Z" id="AdminBro" fill="#000" fill-rule="nonzero"></path>
            </g>
        </g>
    </g>
</svg>