<?xml version="1.0" encoding="UTF-8"?>
<svg width="170px" height="177px" viewBox="0 0 170 177" version="1.1" xmlns="http://www.w3.org/2000/svg" xmlns:xlink="http://www.w3.org/1999/xlink">
    <!-- Generator: Sketch 63.1 (92452) - https://sketch.com -->
    <title>Group 19</title>
    <desc>Created with Sketch.</desc>
    <defs>
        <path d="M39.3652504,100.870208 L4.05909138,81.9015075 L4.05909138,81.9015075 C1.54701753,80.3983931 0,77.6238593 0,74.6216375 L0,30.4717779 C0,27.4695562 1.54701753,24.6950223 4.05909138,23.1919079 L40.9300591,1.12994456 C43.4479462,-0.376648186 46.5520538,-0.376648186 49.0699409,1.12994456 L85.9409086,23.1919079 C88.4529825,24.6950223 90,27.4695562 90,30.4717779 L90,74.6216375 C90,77.6238593 88.4529825,80.3983931 85.9409086,81.9015075 L50.9483881,100.857139 C49.7783215,101.49097 48.4686266,101.822917 47.1379132,101.822917 L43.1515005,101.822917 C41.830104,101.822917 40.5292836,101.4956 39.3652504,100.870208 Z" id="path-1"></path>
        <filter x="-66.7%" y="-58.9%" width="233.3%" height="217.9%" filterUnits="objectBoundingBox" id="filter-2">
            <feOffset dx="0" dy="0" in="SourceAlpha" result="shadowOffsetOuter1"></feOffset>
            <feGaussianBlur stdDeviation="20" in="shadowOffsetOuter1" result="shadowBlurOuter1"></feGaussianBlur>
            <feColorMatrix values="0 0 0 0 0.450980392   0 0 0 0 0.525490196   0 0 0 0 0.62745098  0 0 0 0.24 0" type="matrix" in="shadowBlurOuter1"></feColorMatrix>
        </filter>
    </defs>
    <g id="Page-1" stroke="none" stroke-width="1" fill="none" fill-rule="evenodd">
        <g id="Landingpage" transform="translate(-625.000000, -4227.000000)">
            <g id="Group-19" transform="translate(665.000000, 4264.583333)">
                <g id="Path-Copy-6">
                    <use fill="black" fill-opacity="1" filter="url(#filter-2)" xlink:href="#path-1"></use>
                    <use fill="#69D6D4" fill-rule="evenodd" xlink:href="#path-1"></use>
                </g>
                <g id="Group-14-Copy" transform="translate(19.000000, 22.416667)">
                    <g id="magic-wand" fill="#FFFFFF" fill-rule="nonzero">
                        <path d="M53.4781493,26.9442792 L52.9147706,26.8300555 C51.8442009,26.6130534 51.0122549,25.7808848 50.7950194,24.7104417 L50.6807945,24.1470688 C50.5291112,23.3981402 49.8894284,22.875 49.1251156,22.875 C48.3609184,22.875 47.7211201,23.3980246 47.5692055,24.1470688 L47.4549806,24.7104417 C47.2379763,25.7810004 46.4059147,26.6131691 45.3352294,26.8300555 L44.7718507,26.9442792 C44.0229144,27.0961922 43.5,27.7358684 43.5,28.5000577 C43.5,29.264247 44.02303,29.9039232 44.7718507,30.0558362 L45.3352294,30.1700599 C46.4059147,30.3870619 47.2379763,31.219115 47.4549806,32.2896737 L47.5692055,32.8531621 C47.7211201,33.6020908 48.3609184,34.125231 49.1251156,34.1249999 C49.8894284,34.1249999 50.5291112,33.6018596 50.6807945,32.8529309 L50.7950194,32.2895581 C51.0121393,31.2188837 51.8442009,30.3868307 52.9147706,30.1698287 L53.4781493,30.0556049 C54.2270856,29.9038076 54.75,29.2640158 54.75,28.4998265 C54.75,27.7358684 54.2270856,27.0960766 53.4781493,26.9442792 Z M49.125,31.6139268 C48.701859,30.1015025 47.5233074,28.9229631 46.0108676,28.4998265 C47.5233074,28.0766899 48.7019747,26.898266 49.125,25.3857261 C49.5482566,26.8981504 50.7268082,28.0766899 52.2391324,28.4998265 C50.7269238,28.9231943 49.5482566,30.1015025 49.125,31.6139268 Z" id="Shape"></path>
                        <path d="M42.731293,21.0723857 C42.4554879,19.8080027 41.8187633,18.6563522 40.8900162,17.7419543 C40.5621847,17.4194021 40.0307101,17.419295 39.7032051,17.7419543 C39.3753736,18.0646136 39.3753736,18.5878768 39.7030963,18.9105361 C40.2975902,19.4957379 40.7331751,20.2099605 40.9782869,20.995659 L34.4576831,27.4155186 C33.7763334,25.9362794 32.5672098,24.7458369 31.0646487,24.0750141 L33.2292945,21.9438123 C33.5570172,21.621153 33.5570172,21.097997 33.2292945,20.7753377 C32.901463,20.4526784 32.3700973,20.4526784 32.0423746,20.7753377 L0.245764798,52.0803642 C0.0884883882,52.2352107 0,52.4454589 0,52.6646015 C0,52.8837441 0.0883795464,53.0938852 0.245764798,53.2488389 L4.82561031,57.7579251 C4.98952607,57.9193084 5.20437979,58 5.41912468,58 C5.63386956,58 5.84872328,57.9193084 6.01263904,57.7579251 L13.3885217,50.4960008 C13.7162444,50.1733415 13.7162444,49.6501855 13.3885217,49.3275262 C13.0606902,49.0048669 12.5293245,49.0048669 12.2016018,49.3275262 L5.41923352,56.0052131 L2.02619906,52.6646015 L27.2213357,27.8587331 C28.8412283,28.3495268 30.1158747,29.6045869 30.6143701,31.1993447 L14.6351958,46.9315316 C14.3074731,47.2541909 14.3074731,47.7774541 14.6351958,48.1000063 C14.7991115,48.2613895 15.0139652,48.3420811 15.2287101,48.3420811 C15.4435638,48.3420811 15.6583087,48.2613895 15.8222245,48.1000063 L42.504249,21.8301154 C42.7056063,21.631869 42.7910472,21.3465015 42.731293,21.0723857 Z M31.9136148,29.9200664 C31.2322651,28.4410416 30.0231414,27.2505991 28.5205803,26.5796691 L29.7651864,25.3542924 C31.385079,25.8449789 32.6597253,27.100039 33.158112,28.6947969 L31.9136148,29.9200664 Z" id="Shape"></path>
                        <path d="M43.6023175,7.29063433 L41.5313822,6.87068451 C39.8129853,6.52223151 38.477661,5.18690718 38.129423,3.46861785 L37.7094732,1.39746745 C37.5426114,0.574662525 36.8396846,0 36.0001075,0 C35.1604229,0 34.4574961,0.574662525 34.2906343,1.39757496 L33.8706845,3.46861785 C33.522339,5.18690718 32.1870147,6.52233903 30.4687254,6.87068451 L28.3976825,7.29063433 C27.5748776,7.4573886 27,8.16042289 27,9 C27,9.83957711 27.5748776,10.5425039 28.3976825,10.7092582 L30.4687254,11.129208 C32.1871222,11.4775535 33.5224465,12.8129853 33.8706845,14.5312746 L34.2906343,16.602425 C34.4574961,17.42523 35.1604229,18 36.0001075,18 C36.8396846,18 37.5426114,17.4253375 37.7094732,16.602425 L38.129423,14.5313822 C38.4777685,12.8130928 39.8130928,11.477661 41.5313822,11.1293155 L43.6023175,10.7093657 C44.42523,10.5426114 45,9.83957711 45,9 C45,8.16042289 44.4253375,7.45749612 43.6023175,7.29063433 Z M43.273002,9.08439852 L41.2020667,9.50434835 C38.8293394,9.98536615 36.9855812,11.8293394 36.5045634,14.2018516 L36.0846135,16.2728945 C36.0768725,16.3114921 36.0705292,16.342026 36.000215,16.342026 C35.9296858,16.342026 35.92345,16.3114921 35.915709,16.2728945 L35.4957592,14.2018516 C35.0147414,11.8292319 33.1708756,9.98536615 30.7982559,9.50434835 L28.727213,9.08439852 C28.6886155,9.07654999 28.6580815,9.07031418 28.6580815,9 C28.6580815,8.92957831 28.688723,8.92345001 28.727213,8.91560148 L30.7982559,8.49565165 C33.1709832,8.01463385 35.0147414,6.17066061 35.4957592,3.79814837 L35.915709,1.72710548 C35.92345,1.68850794 35.9297933,1.65797396 36.000215,1.65797396 C36.0706367,1.65797396 36.076765,1.68850794 36.0846135,1.72710548 L36.5045634,3.79814837 C36.9855812,6.17076813 38.8294469,8.01463385 41.2020667,8.49565165 L43.273002,8.91560148 C43.3117071,8.92345001 43.3421336,8.92968582 43.3421336,9 C43.3421336,9.07031418 43.3115996,9.07654999 43.273002,9.08439852 Z" id="Shape"></path>
                    </g>
                    <line x1="19.8556741" y1="16.2862832" x2="19.8556741" y2="20.4886387" id="Line-6" stroke="#FFFFFF" stroke-width="1.5" stroke-linecap="round"></line>
                    <line x1="19.8511777" y1="16.2817869" x2="19.8511777" y2="20.4841423" id="Line-6-Copy" stroke="#FFFFFF" stroke-width="1.5" stroke-linecap="round" transform="translate(19.851178, 18.382965) rotate(-270.000000) translate(-19.851178, -18.382965) "></line>
                    <line x1="40.7035815" y1="38.2070796" x2="40.7035815" y2="43.6026966" id="Line-6" stroke="#FFFFFF" stroke-width="1.5" stroke-linecap="round"></line>
                    <line x1="40.6978085" y1="38.2013066" x2="40.6978085" y2="43.5969235" id="Line-6-Copy" stroke="#FFFFFF" stroke-width="1.5" stroke-linecap="round" transform="translate(40.697808, 40.899115) rotate(-270.000000) translate(-40.697808, -40.899115) "></line>
                </g>
            </g>
        </g>
    </g>
</svg>