<?xml version="1.0" encoding="UTF-8"?>
<svg width="183px" height="46px" viewBox="0 0 183 46" version="1.1" xmlns="http://www.w3.org/2000/svg" xmlns:xlink="http://www.w3.org/1999/xlink">
    <!-- Generator: Sketch 63.1 (92452) - https://sketch.com -->
    <title>Group 20</title>
    <desc>Created with Sketch.</desc>
    <g id="Page-1" stroke="none" stroke-width="1" fill="none" fill-rule="evenodd">
        <g id="Landingpage" transform="translate(-219.000000, -895.000000)">
            <g id="Group-20" transform="translate(219.000000, 895.000000)">
                <text id="by-Software-Brothers-Copy" fill="#D8D8D8" font-family="TTNorms-Light, TT Norms" font-size="14" font-weight="300" line-spacing="14">
                    <tspan x="55" y="44">by Software Brothers</tspan>
                </text>
                <path d="M9.00558473,40 C4.03184129,40 0,35.916272 0,30.878662 L0,13.0939507 C0,11.9106647 0.623489206,10.8167789 1.63624239,10.2247143 L18.361257,0.444683278 C19.3751763,-0.148227759 20.6248237,-0.148227759 21.638743,0.444683278 L38.3637576,10.2247143 C39.3764021,10.8168798 40,11.9105231 40,13.0939507 L40,30.8778186 C40,35.916272 35.9681587,40 30.9944153,40 C27.5158336,40 24.3482937,37.972909 22.857381,34.7928673 L17.142619,34.7928673 C15.6517063,37.972909 12.4841664,40 9.00558473,40 L9.00558473,40 Z M23.6275736,29.9635764 L27.522714,32.172433 C27.6510453,32.2450043 27.8065809,32.2485043 27.937974,32.1817776 C28.0693671,32.1150509 28.1595353,31.9867726 28.1787113,31.8392912 L28.4846212,29.5132024 C28.5172606,29.2671237 28.4478728,29.0183427 28.2929066,28.8258339 L24.8570476,24.5734265 C24.944768,23.7450811 24.9887304,22.9125887 24.9887472,22.0795017 C24.9961045,17.1568195 23.4449604,12.3611745 20.5626407,8.39538628 C20.4301759,8.21564087 20.2215958,8.10975129 20,8.10975129 C19.7784042,8.10975129 19.5698241,8.21564087 19.4373593,8.39538628 C19.3756773,8.47972597 19.3206635,8.5539449 19.2748187,8.61972987 C16.4951131,12.5438492 15.0040054,17.2523848 15.0120864,22.0803451 C15.0120864,22.9220553 15.0562641,23.754488 15.1429524,24.5734265 L11.707927,28.8258339 C11.5528882,29.0181284 11.4828707,29.2669305 11.5153788,29.5132024 L11.8212887,31.8392912 C11.8404647,31.9867726 11.9306329,32.1150509 12.062026,32.1817776 C12.1934191,32.2485043 12.3489547,32.2450043 12.477286,32.172433 L16.3724264,29.962733 C16.5858131,30.5590146 16.822539,31.1434887 17.0817704,31.7161552 L22.9182296,31.7161552 C23.1783883,31.1417913 23.4150372,30.5568207 23.6275736,29.962733 L23.6275736,29.9635764 Z M20,19.9204055 C19.440993,19.920182 18.9049815,19.6952196 18.5099384,19.2950312 C18.1148953,18.8948429 17.8931978,18.3522274 17.8936394,17.7866113 C17.893419,17.2211412 18.1152142,16.6787424 18.5102333,16.2787365 C18.9052524,15.8787306 19.4411375,15.653884 20,15.6536604 C20.559007,15.653884 21.0950185,15.8788463 21.4900616,16.2790347 C21.8851047,16.679223 22.1068022,17.2218385 22.1063606,17.7874547 C22.1068022,18.3530708 21.8851047,18.8956863 21.4900616,19.2958746 C21.0950185,19.696063 20.559007,19.9210254 20,19.9212489 L20,19.9204055 Z" id="Shape" fill="#4268F6" fill-rule="nonzero"></path>
                <path d="M64.1878884,28.7509728 L63.4170257,26.9662776 L57.7918112,26.9662776 L57.0209485,28.7509728 L54,28.7509728 L60.1460677,14.8054475 L61.0836034,14.8054475 L67.208837,28.7509728 L64.1878884,28.7509728 Z M62.4378217,24.6627756 L60.6044185,20.0350195 L58.7710152,24.6627756 L62.4378217,24.6627756 Z M76.985043,13.1867704 L79.7976503,13.1867704 L79.7976503,28.7509728 L77.2142184,28.7509728 L77.2142184,27.4850843 C76.5266922,28.460441 75.3183128,29 73.9015921,29 C71.0264825,29 68.9014015,26.7172503 68.9014015,23.6251621 C68.9014015,20.5330739 71.0264825,18.2503243 73.9015921,18.2503243 C75.2141422,18.2503243 76.2350144,18.6653696 76.985043,19.4747082 L76.985043,13.1867704 L76.985043,13.1867704 Z M77.0267113,23.6251621 C77.0267113,21.7989624 75.839166,20.7821012 74.4224453,20.7821012 C72.9223881,20.7821012 71.755677,21.923476 71.755677,23.6044099 C71.755677,25.3268482 72.901554,26.4474708 74.4224453,26.4474708 C75.839166,26.4474708 77.0267113,25.4721141 77.0267113,23.6251621 Z M99.4483995,22.3800259 L99.4483995,28.7509728 L96.6357923,28.7509728 L96.6357923,22.7743191 C96.6357923,21.5499351 95.9065978,20.7821012 94.802389,20.7821012 C93.6981803,20.7821012 92.9064834,21.5706874 92.9064834,22.7120623 L92.9064834,28.7509728 L90.0938762,28.7509728 L90.0938762,22.7743191 C90.0938762,21.5499351 89.3646817,20.7821012 88.2604729,20.7821012 C87.1145959,20.7821012 86.3645673,21.5499351 86.3645673,22.7743191 L86.3645673,28.7509728 L83.5519601,28.7509728 L83.5519601,18.4785992 L86.1353919,18.4785992 L86.1353919,19.3916991 C86.8229181,18.6653696 87.8646245,18.2503243 89.0521698,18.2503243 C90.4063881,18.2503243 91.4272604,18.7483787 92.1147866,19.7237354 C92.9273176,18.8106355 94.135697,18.2503243 95.5524176,18.2503243 C97.9691765,18.2503243 99.4483995,19.8897536 99.4483995,22.3800259 L99.4483995,22.3800259 Z M103.098539,28.7509728 L103.098539,18.4785992 L105.911979,18.4785992 L105.911979,28.7509728 L103.099372,28.7509728 L103.098539,28.7509728 Z M102.703524,14.7431907 C102.703524,13.7470817 103.49522,13 104.495259,13 C105.495297,13 106.307828,13.7470817 106.307828,14.7431907 C106.307828,15.7185473 105.495297,16.4656291 104.495259,16.4656291 C103.49522,16.4656291 102.703524,15.7185473 102.703524,14.7431907 Z M119.145817,22.3800259 L119.145817,28.7509728 L116.354044,28.7509728 L116.354044,22.7535668 C116.354044,21.5706874 115.583181,20.7613489 114.437304,20.7613489 C113.291427,20.7613489 112.478896,21.5706874 112.478896,22.7535668 L112.478896,28.7509728 L109.666289,28.7509728 L109.666289,18.4785992 L112.249721,18.4785992 L112.249721,19.4124514 C112.978915,18.6861219 114.041456,18.2503243 115.270669,18.2503243 C117.666594,18.2503243 119.145817,19.8897536 119.145817,22.3800259 L119.145817,22.3800259 Z M133.650537,24.7250324 C133.650537,27.0907912 131.775465,28.7509728 129.129531,28.7509728 L123.004298,28.7509728 L123.004298,15.0544747 L127.879484,15.0544747 C130.421247,15.0544747 132.233816,16.6316472 132.233816,18.8728923 C132.233816,19.8690013 131.90047,20.6990921 131.212944,21.3424125 C132.733835,21.9027237 133.650537,23.0648508 133.650537,24.7250324 L133.650537,24.7250324 Z M127.650308,17.461738 L125.712734,17.461738 L125.712734,20.5953307 L127.650308,20.5953307 C128.796185,20.5953307 129.442043,19.9935149 129.442043,19.0181582 C129.442043,18.0428016 128.796185,17.461738 127.650308,17.461738 Z M130.879598,24.6212711 C130.879598,23.5629053 130.150403,22.8988327 128.92119,22.8988327 L125.712734,22.8988327 L125.712734,26.3437095 L128.92119,26.3437095 C130.150403,26.3437095 130.879598,25.7003891 130.879598,24.6212711 L130.879598,24.6212711 Z M143.051729,18.4785992 L143.051729,20.9481193 L142.3017,20.9481193 C140.614136,20.9481193 139.530761,21.8612192 139.530761,23.6251621 L139.530761,28.7509728 L136.718154,28.7509728 L136.718154,18.4785992 L139.301586,18.4785992 L139.301586,19.7029831 C139.986721,18.8422118 141.032257,18.3444703 142.135027,18.3540856 C142.489207,18.3540856 142.780885,18.3955901 143.051729,18.4785992 Z M144.935134,23.6044099 C144.873465,20.6783398 147.435229,18.1880674 150.457011,18.2503243 C153.47796,18.2088197 156.061391,20.6783398 155.998889,23.6044099 C156.061391,26.5304799 153.457125,29.0415045 150.436177,28.9792477 C147.415228,29.0415045 144.873465,26.5304799 144.935967,23.6044099 L144.935134,23.6044099 Z M153.123779,23.6251621 C153.123779,22.0272374 151.977902,20.8028534 150.457011,20.8028534 C148.894451,20.8028534 147.790243,21.9857328 147.790243,23.6251621 C147.790243,25.2230869 148.894451,26.4059663 150.457011,26.4059663 C151.977902,26.4059663 153.123779,25.2230869 153.123779,23.6251621 Z" id="Shape" fill="#454655" fill-rule="nonzero"></path>
            </g>
        </g>
    </g>
</svg>