<?xml version="1.0" encoding="UTF-8"?>
<svg width="183px" height="40px" viewBox="0 0 183 40" version="1.1" xmlns="http://www.w3.org/2000/svg" xmlns:xlink="http://www.w3.org/1999/xlink">
    <!-- Generator: Sketch 63.1 (92452) - https://sketch.com -->
    <title>Combined Shape</title>
    <desc>Created with Sketch.</desc>
    <g id="Page-1" stroke="none" stroke-width="1" fill="none" fill-rule="evenodd">
        <g id="Landingpage" transform="translate(-110.000000, -21.000000)" fill="#FFFFFF">
            <g id="Logo" transform="translate(110.000000, 21.000000)">
                <path d="M21.6386325,0.444648984 L38.3637787,10.2248941 C39.3763425,10.8170038 40,11.9105424 40,13.0938907 L40,30.8785254 L40,30.8785254 C40,33.7651807 38.6760849,36.338649 36.609693,38.0100268 C35.0699176,39.2554567 33.1178814,40 30.994152,40 C27.4035834,40 24.3037879,37.8717723 22.8573646,34.7928427 L17.1426362,34.7928426 C15.6962121,37.8717723 12.5964166,40 9.00584795,40 C4.03205547,40 0,35.9161767 0,30.8785254 L0,13.0938907 C0,11.9105424 0.623657456,10.8170038 1.63622129,10.2248941 L18.3613675,0.444648984 C19.3752234,-0.148216328 20.6247766,-0.148216328 21.6386325,0.444648984 Z M64.55,28.28 L66.93,34.16 L69.31,28.28 L70.01,28.28 L66.79,36.26 C66.314,37.45 65.81,37.94 64.83,37.94 C64.48,37.94 64.2,37.8 64.2,37.8 L64.2,37.8 L64.2,37.17 C64.2,37.17 64.48,37.31 64.83,37.31 C65.46,37.31 65.81,36.96 66.09,36.26 L66.09,36.26 L66.58,35 L63.85,28.28 L64.55,28.28 Z M111.38,28.14 C112.822,28.14 113.9,29.302 113.9,30.8 L113.9,30.8 L113.9,35 L113.27,35 L113.27,33.88 C113.27,33.88 112.5,35.14 110.82,35.14 C109.49,35.14 108.58,34.23 108.58,33.25 C108.58,32.2 109.35,31.416 110.61,31.22 L110.61,31.22 L113.27,30.8 C113.27,29.638 112.458,28.77 111.38,28.77 C110.148,28.77 109.42,29.75 109.42,29.75 L109.42,29.75 L109,29.33 C109,29.33 109.868,28.14 111.38,28.14 Z M123.7,28.14 C125.38,28.14 126.78,29.54 126.78,31.64 L126.78,31.64 L126.78,31.92 L121.11,31.92 C121.18,33.32 122.37,34.51 123.77,34.51 C125.24,34.51 126.01,33.334 126.01,33.334 L126.01,33.334 L126.43,33.74 C126.43,33.74 125.52,35.14 123.77,35.14 C122.02,35.14 120.48,33.6 120.48,31.64 C120.48,29.68 122.02,28.14 123.7,28.14 Z M57.13,25.2 L57.13,29.609 C57.2015821,29.4902688 57.9711967,28.2597312 59.4968941,28.1480948 L59.72,28.14 C61.33,28.14 62.87,29.68 62.87,31.64 C62.87,33.6 61.33,35.14 59.72,35.14 C57.97,35.14 57.13,33.67 57.13,33.67 L57.13,33.671 L57.13,35 L56.5,35 L56.5,25.2 L57.13,25.2 Z M169.06,28.14 C170.74,28.14 172.14,29.54 172.14,31.64 L172.14,31.64 L172.14,31.92 L166.47,31.92 C166.54,33.32 167.73,34.51 169.13,34.51 C170.453,34.51 171.209,33.55744 171.34697,33.366928 L171.37,33.334 L171.79,33.74 C171.79,33.74 170.88,35.14 169.13,35.14 C167.38,35.14 165.84,33.6 165.84,31.64 C165.84,29.68 167.38,28.14 169.06,28.14 Z M76.94,25.06 C78.76,25.06 79.74,26.25 79.74,26.25 L79.74,26.25 L79.25,26.74 C79.25,26.74 78.48,25.76 76.94,25.76 C75.4,25.76 74.56,26.6 74.56,27.65 C74.56,30.31 80.02,29.05 80.02,32.41 C80.02,33.95 78.83,35.14 76.8,35.14 C74.63,35.14 73.58,33.67 73.58,33.67 L73.58,33.67 L74.07,33.18 C74.07,33.18 74.91,34.44 76.8,34.44 C78.48,34.44 79.32,33.6 79.32,32.41 C79.32,29.75 73.86,31.01 73.86,27.65 C73.86,26.25 75.05,25.06 76.94,25.06 Z M180.61,28.14 C181.94,28.14 182.71,29.12 182.71,29.12 L182.71,29.12 L182.22,29.61 C182.22,29.61 181.66,28.77 180.61,28.77 C179.63,28.77 179.07,29.344 179.07,29.96 C179.07,31.57 182.92,30.8 182.92,33.11 C182.92,34.23 182.01,35.14 180.54,35.14 C179,35.14 178.16,34.02 178.16,34.02 L178.16,34.02 L178.65,33.53 C178.65,33.53 179.35,34.51 180.54,34.51 C181.66,34.51 182.29,33.88 182.29,33.11 C182.29,31.43 178.44,32.2 178.44,29.96 C178.44,29.05 179.35,28.14 180.61,28.14 Z M148.13,28.14 C149.95,28.14 151.49,29.68 151.49,31.64 C151.49,33.6 149.95,35.14 148.13,35.14 C146.31,35.14 144.77,33.6 144.77,31.64 C144.77,29.68 146.31,28.14 148.13,28.14 Z M154.57,26.04 L154.57,28.28 L156.11,28.28 L156.11,28.91 L154.57,28.91 L154.57,33.32 C154.57,34.09 154.99,34.51 155.62,34.51 C156.11,34.51 156.53,34.3 156.53,34.3 L156.53,34.3 L156.53,34.93 C156.53,34.93 156.11,35.14 155.62,35.14 C154.57,35.14 153.94,34.51 153.94,33.32 L153.94,33.32 L153.94,28.91 L152.61,28.91 L152.61,28.28 L153.52,28.28 C153.8,28.28 154.01,28.07 154.01,27.72 L154.01,27.72 L154.01,26.04 L154.57,26.04 Z M95.56,26.04 L95.56,28.28 L97.1,28.28 L97.1,28.91 L95.56,28.91 L95.56,33.32 C95.56,34.09 95.98,34.51 96.61,34.51 C97.1,34.51 97.52,34.3 97.52,34.3 L97.52,34.3 L97.52,34.93 C97.52,34.93 97.1,35.14 96.61,35.14 C95.56,35.14 94.93,34.51 94.93,33.32 L94.93,33.32 L94.93,28.91 L93.6,28.91 L93.6,28.28 L94.51,28.28 C94.79,28.28 95,28.07 95,27.72 L95,27.72 L95,26.04 L95.56,26.04 Z M84.78,28.14 C86.6,28.14 88.14,29.68 88.14,31.64 C88.14,33.6 86.6,35.14 84.78,35.14 C82.96,35.14 81.42,33.6 81.42,31.64 C81.42,29.68 82.96,28.14 84.78,28.14 Z M99.06,28.28 L100.95,33.95 L102.77,28.28 L103.33,28.28 L105.15,34.02 L107.04,28.28 L107.74,28.28 L105.5,35 L104.87,35 L103.05,29.33 L101.23,35 L100.6,35 L98.36,28.28 L99.06,28.28 Z M135.32,25.2 C136.93,25.2 137.98,26.25 137.98,27.65 C137.98,29.26 136.72,29.75 136.72,29.75 C136.72,29.75 138.47,30.31 138.47,32.27 C138.47,33.81 137.28,35 135.46,35 L135.46,35 L131.68,35 L131.68,25.2 Z M158.98,25.2 L158.98,29.469 C159.034351,29.3616717 159.625517,28.2483283 161.07679,28.1473239 L161.29,28.14 C162.83,28.14 164.02,29.33 164.02,31.01 L164.02,31.01 L164.02,35 L163.39,35 L163.39,31.01 C163.39,29.68 162.48,28.77 161.29,28.77 C160.03,28.77 158.98,29.82 158.98,31.22 L158.98,31.22 L158.98,35 L158.35,35 L158.35,25.2 L158.98,25.2 Z M119.57,28.14 L119.57,28.77 L119.29,28.77 C118.03,28.77 116.91,29.75 116.91,31.22 L116.91,31.22 L116.91,35 L116.28,35 L116.28,28.28 L116.91,28.28 L116.91,29.399 C116.964478,29.2973732 117.558301,28.2426268 119.06805,28.1469384 L119.29,28.14 L119.57,28.14 Z M92.13,25.06 C92.62,25.06 93.04,25.27 93.04,25.27 L93.04,25.27 L93.04,25.9 C93.04,25.9 92.62,25.69 92.13,25.69 C91.5,25.69 91.08,26.11 91.08,26.88 L91.08,26.88 L91.08,28.28 L92.76,28.28 L92.76,28.91 L91.08,28.91 L91.08,35 L90.45,35 L90.45,28.91 L89.33,28.91 L89.33,28.28 L90.45,28.28 L90.45,26.88 C90.45,25.69 91.08,25.06 92.13,25.06 Z M143.86,28.14 L143.86,28.77 L143.58,28.77 C142.32,28.77 141.2,29.75 141.2,31.22 L141.2,31.22 L141.2,35 L140.57,35 L140.57,28.28 L141.2,28.28 L141.2,29.399 C141.254478,29.2973732 141.848301,28.2426268 143.35805,28.1469384 L143.58,28.14 L143.86,28.14 Z M177.39,28.14 L177.39,28.77 L177.11,28.77 C175.85,28.77 174.73,29.75 174.73,31.22 L174.73,31.22 L174.73,35 L174.1,35 L174.1,28.28 L174.73,28.28 L174.73,29.399 C174.784478,29.2973732 175.378301,28.2426268 176.88805,28.1469384 L177.11,28.14 L177.39,28.14 Z M84.78,28.77 C83.31,28.77 82.05,30.03 82.05,31.64 C82.05,33.25 83.31,34.51 84.78,34.51 C86.25,34.51 87.51,33.25 87.51,31.64 C87.51,30.03 86.25,28.77 84.78,28.77 Z M113.27,31.43 L110.75,31.85 C109.7,32.018 109.21,32.55 109.21,33.25 C109.21,33.88 109.84,34.51 110.82,34.51 C112.22,34.51 113.27,33.46 113.27,32.06 L113.27,32.06 L113.27,31.43 Z M59.72,28.77 C58.39,28.77 57.13,30.03 57.13,31.64 C57.13,33.25 58.39,34.51 59.72,34.51 C60.98,34.51 62.24,33.25 62.24,31.64 C62.24,30.03 60.98,28.77 59.72,28.77 Z M148.13,28.77 C146.66,28.77 145.4,30.03 145.4,31.64 C145.4,33.25 146.66,34.51 148.13,34.51 C149.6,34.51 150.86,33.25 150.86,31.64 C150.86,30.03 149.6,28.77 148.13,28.77 Z M135.46,30.17 L132.38,30.17 L132.38,34.3 L135.46,34.3 C136.93,34.3 137.77,33.46 137.77,32.27 C137.77,31.01 136.93,30.17 135.46,30.17 L135.46,30.17 Z M19.4369315,8.39524785 C19.3752172,8.47920496 19.3211549,8.55397186 19.2747446,8.61954855 C16.5913084,12.4111784 15.0116385,17.0585107 15.0116385,22.0795317 C15.0116385,22.9220897 15.0561202,23.7541251 15.142835,24.5733601 L11.7078604,28.8255646 C11.5525139,29.0178703 11.482758,29.2667615 11.5151806,29.5130526 L11.82145,31.8395653 C11.8538154,32.0854222 12.0768327,32.2581544 12.319573,32.2253735 C12.3751087,32.2178737 12.4287379,32.1997817 12.4776219,32.1720552 L16.3724603,29.9629423 C16.5858238,30.5590505 16.8226937,31.1437481 17.0819355,31.715886 L22.9180645,31.715886 C23.1773063,31.1437481 23.4141762,30.5590505 23.6275397,29.9629423 L27.5223781,32.1720552 C27.5712621,32.1997817 27.6248913,32.2178737 27.680427,32.2253735 C27.9231673,32.2581544 28.1461846,32.0854222 28.17855,31.8395653 L28.4848194,29.5130526 C28.517242,29.2667615 28.4474861,29.0178703 28.2921396,28.8255646 L24.857165,24.5733601 C24.9438798,23.7541251 24.9883615,22.9220897 24.9883615,22.0795317 C24.9883615,17.0572555 23.4079017,12.4088548 20.7232427,8.61670503 C20.6773602,8.5518948 20.623981,8.47807953 20.5631052,8.39525921 C20.522297,8.33974049 20.4736884,8.29055497 20.4188205,8.24926216 C20.1078383,8.01522111 19.6682308,8.08058047 19.4369315,8.39524785 Z M169.06,28.77 C167.73,28.77 166.54,29.96 166.47,31.29 L166.47,31.29 L171.51,31.29 C171.44,29.82 170.39,28.77 169.06,28.77 Z M123.7,28.77 C122.37,28.77 121.18,29.96 121.11,31.29 L121.11,31.29 L126.15,31.29 C126.08,29.82 125.03,28.77 123.7,28.77 Z M135.32,25.9 L132.38,25.9 L132.38,29.47 L135.32,29.47 C136.58,29.47 137.28,28.77 137.28,27.65 C137.28,26.6 136.58,25.9 135.32,25.9 L135.32,25.9 Z M80.544367,6.18677043 L80.544367,21.7509728 L77.9862503,21.7509728 L77.9862503,20.4850843 C77.3054612,21.460441 76.1089228,22 74.7060846,22 C71.8591483,22 69.7548911,19.7172503 69.7548911,16.6251621 C69.7548911,13.5330739 71.8591483,11.2503243 74.7060846,11.2503243 C76.0057729,11.2503243 77.0166416,11.6653696 77.7593206,12.4747082 L77.7593206,6.18677043 L80.544367,6.18677043 Z M150.511327,11.2503243 C153.431451,11.2098079 155.938729,13.5621671 155.998894,16.396209 L155.9989,16.6044099 C156.059316,19.4608116 153.603344,21.9216967 150.703633,21.9793474 L150.490697,21.9792477 C147.570574,22.0400222 145.102614,19.6485937 145.044321,16.8126799 L145.044384,16.6044099 C144.982494,13.6783398 147.519981,11.1880674 150.511327,11.2503243 Z M62.0141908,7.80544747 L68.0794029,21.7509728 L65.0880568,21.7509728 L64.3247478,19.9662776 L58.7546551,19.9662776 L57.9913461,21.7509728 L55,21.7509728 L61.085842,7.80544747 L62.0141908,7.80544747 Z M96.145087,11.2503243 C98.5381638,11.2503243 100.002892,12.8897536 100.002892,15.3800259 L100.002892,21.7509728 L97.2178456,21.7509728 L97.2178456,15.7743191 C97.2178456,14.5499351 96.4957965,13.7821012 95.4024079,13.7821012 C94.3090194,13.7821012 93.5250804,14.5706874 93.5250804,15.7120623 L93.5250804,21.7509728 L90.740034,21.7509728 L90.740034,15.7743191 C90.740034,14.5499351 90.017985,13.7821012 88.9245964,13.7821012 C87.7899479,13.7821012 87.0472689,14.5499351 87.0472689,15.7743191 L87.0472689,21.7509728 L84.2622225,21.7509728 L84.2622225,11.4785992 L86.8203392,11.4785992 L86.8203392,12.3916991 C87.5011283,11.6653696 88.5326269,11.2503243 89.7085354,11.2503243 C91.0494836,11.2503243 92.0603523,11.7483787 92.7411414,12.7237354 C93.5457104,11.8106355 94.7422488,11.2503243 96.145087,11.2503243 Z M106.402644,11.4785992 L106.402644,21.7509728 L103.617598,21.7509728 L103.617598,11.4785992 L106.402644,11.4785992 Z M115.669962,11.2503243 C118.042409,11.2503243 119.507137,12.8897536 119.507137,15.3800259 L119.507137,21.7509728 L116.742721,21.7509728 L116.742721,15.7535668 C116.742721,14.5706874 115.979412,13.7613489 114.844763,13.7613489 C113.710115,13.7613489 112.905546,14.5706874 112.905546,15.7535668 L112.905546,21.7509728 L110.1205,21.7509728 L110.1205,11.4785992 L112.678616,11.4785992 L112.678616,12.4124514 C113.400665,11.6861219 114.452794,11.2503243 115.669962,11.2503243 Z M128.155556,8.05447471 C130.672413,8.05447471 132.467221,9.63164721 132.467221,11.8728923 C132.467221,12.8690013 132.137141,13.6990921 131.456352,14.3424125 C132.96234,14.9027237 133.870059,16.0648508 133.870059,17.7250324 C133.870059,20.0907912 132.013361,21.7509728 129.393355,21.7509728 L123.328143,21.7509728 L123.328143,8.05447471 L128.155556,8.05447471 Z M142.270918,11.3540856 C142.621628,11.3540856 142.910447,11.3955901 143.178637,11.4785992 L143.178637,13.9481193 L142.435958,13.9481193 C140.76493,13.9481193 139.692172,14.8612192 139.692172,16.6251621 L139.692172,21.7509728 L136.907125,21.7509728 L136.907125,11.4785992 L139.465242,11.4785992 L139.465242,12.7029831 C140.146031,11.8521401 141.13627,11.3540856 142.270918,11.3540856 Z M20,15.6539119 C21.1632205,15.6539119 22.1061971,16.6089953 22.1061971,17.7871505 C22.1061971,18.9653057 21.1632205,19.9203892 20,19.9203892 C18.8367795,19.9203892 17.8938029,18.9653057 17.8938029,17.7871505 C17.8938029,16.6089953 18.8367795,15.6539119 20,15.6539119 Z M75.2218339,13.7821012 C73.7364759,13.7821012 72.5811974,14.923476 72.5811974,16.6044099 C72.5811974,18.3268482 73.7158459,19.4474708 75.2218339,19.4474708 C76.6246721,19.4474708 77.8005806,18.4721141 77.8005806,16.6251621 C77.8005806,14.7989624 76.6246721,13.7821012 75.2218339,13.7821012 Z M150.511327,13.8028534 C148.964079,13.8028534 147.870691,14.9857328 147.870691,16.6251621 C147.870691,18.2230869 148.964079,19.4059663 150.511327,19.4059663 C152.017315,19.4059663 153.151964,18.2230869 153.151964,16.6251621 C153.151964,15.0272374 152.017315,13.8028534 150.511327,13.8028534 Z M129.187055,15.8988327 L126.010039,15.8988327 L126.010039,19.3437095 L129.187055,19.3437095 C130.404223,19.3437095 131.126272,18.7003891 131.126272,17.6212711 C131.126272,16.5629053 130.404223,15.8988327 129.187055,15.8988327 Z M61.5397014,13.0350195 L59.7242638,17.6627756 L63.3551391,17.6627756 L61.5397014,13.0350195 Z M127.928627,10.461738 L126.010039,10.461738 L126.010039,13.5953307 L127.928627,13.5953307 C129.063275,13.5953307 129.702804,12.9935149 129.702804,12.0181582 C129.702804,11.0428016 129.063275,10.461738 127.928627,10.461738 Z M104.999806,6 C105.990045,6 106.794613,6.74708171 106.794613,7.74319066 C106.794613,8.71854734 105.990045,9.46562905 104.999806,9.46562905 C104.009567,9.46562905 103.225628,8.71854734 103.225628,7.74319066 C103.225628,6.74708171 104.009567,6 104.999806,6 Z" id="Combined-Shape"></path>
            </g>
        </g>
    </g>
</svg>