<?xml version="1.0" encoding="UTF-8"?>
<svg width="170px" height="177px" viewBox="0 0 170 177" version="1.1" xmlns="http://www.w3.org/2000/svg" xmlns:xlink="http://www.w3.org/1999/xlink">
    <!-- Generator: Sketch 63.1 (92452) - https://sketch.com -->
    <title>Group 18</title>
    <desc>Created with Sketch.</desc>
    <defs>
        <path d="M39.3652504,100.870208 L4.05909138,81.9015075 L4.05909138,81.9015075 C1.54701753,80.3983931 0,77.6238593 0,74.6216375 L0,30.4717779 C0,27.4695562 1.54701753,24.6950223 4.05909138,23.1919079 L40.9300591,1.12994456 C43.4479462,-0.376648186 46.5520538,-0.376648186 49.0699409,1.12994456 L85.9409086,23.1919079 C88.4529825,24.6950223 90,27.4695562 90,30.4717779 L90,74.6216375 C90,77.6238593 88.4529825,80.3983931 85.9409086,81.9015075 L50.9483881,100.857139 C49.7783215,101.49097 48.4686266,101.822917 47.1379132,101.822917 L43.1515005,101.822917 C41.830104,101.822917 40.5292836,101.4956 39.3652504,100.870208 Z" id="path-1"></path>
        <filter x="-66.7%" y="-58.9%" width="233.3%" height="217.9%" filterUnits="objectBoundingBox" id="filter-2">
            <feOffset dx="0" dy="0" in="SourceAlpha" result="shadowOffsetOuter1"></feOffset>
            <feGaussianBlur stdDeviation="20" in="shadowOffsetOuter1" result="shadowBlurOuter1"></feGaussianBlur>
            <feColorMatrix values="0 0 0 0 0.450980392   0 0 0 0 0.525490196   0 0 0 0 0.62745098  0 0 0 0.24 0" type="matrix" in="shadowBlurOuter1"></feColorMatrix>
        </filter>
    </defs>
    <g id="Page-1" stroke="none" stroke-width="1" fill="none" fill-rule="evenodd">
        <g id="Landingpage" transform="translate(-203.000000, -4227.000000)">
            <g id="Group-18" transform="translate(243.000000, 4264.583333)">
                <g id="Path-Copy-6">
                    <use fill="black" fill-opacity="1" filter="url(#filter-2)" xlink:href="#path-1"></use>
                    <use fill="#69D6D4" fill-rule="evenodd" xlink:href="#path-1"></use>
                </g>
                <g id="Group" transform="translate(15.000000, 26.416667)" fill="#FFFFFF" fill-rule="nonzero">
                    <path d="M60.6366,26.9064 C60.6366,30.7116 56.1138,34.4328 49.1628,36.7344 C48.7887713,36.8578333 48.4127195,36.9750494 48.0348,37.086 C48.1716,37.6362 48.294,38.1768 48.3984,38.706 C49.7706,45.633 48.714,51.327 45.4614,53.208 C42.3126,55.0302 37.2234,53.2404 32.0694,48.8088 C31.509227,48.3261247 30.9626148,47.8279313 30.4302,47.3148 C30.0078,47.7228 29.5854,48.1128 29.1648,48.48 C23.8446,53.1276 18.381,55.056 15.1248,53.1798 C11.9736,51.363 10.983,46.0626 12.2508,39.3876 C12.3896101,38.6622953 12.5486722,37.9410135 12.7278,37.2246 C12.1770296,37.0674443 11.6302599,36.8965913 11.088,36.7122 C4.401,34.4286 0,30.6612 0,26.9058 C0,23.2698 4.0998,19.764 10.5198,17.5278 C11.260764,17.270782 12.0090836,17.0354815 12.7638,16.8222 C12.5974151,16.1571065 12.4479668,15.4878903 12.3156,14.8152 C10.9854,8.022 11.9214,2.5932 15.0816,0.765 C18.3774,-1.1412 23.8656,0.906 29.3418,5.7648 C29.6826,6.0678 30.0174,6.3768 30.3462,6.6924 C30.8378549,6.21815262 31.3414156,5.75640523 31.8564,5.3076 C37.0812,0.7638 42.2544,-1.1364 45.4176,0.6864 C48.717,2.5872 49.683,8.3616 48.2052,15.5292 C48.1128218,15.9746246 48.0122046,16.4183006 47.9034,16.86 C48.5592,17.0484 49.2102,17.253 49.8558,17.4744 C56.4048,19.7274 60.6366,23.2566 60.6366,26.9064 Z M48.3642,34.284 C54.3714,32.2944 58.0716,29.2506 58.0716,26.9064 C58.0716,24.7056 54.6456,21.8484 49.0296,19.917 C48.4329887,19.7125321 47.8314042,19.522874 47.2254,19.3482 C46.4784,21.762 45.4818,24.3132 44.2716,26.919 C45.54,29.589 46.5768,32.1726 47.3448,34.6026 C47.6862539,34.5017661 48.0260962,34.3955529 48.3642,34.284 L48.3642,34.284 Z M45.8718,39.2196 C45.7736965,38.7280941 45.6640663,38.2389593 45.543,37.7526 C43.029,38.3328 40.257,38.7582 37.323,39.0186 C35.655,41.4312 33.9462,43.6044 32.2356,45.4734 C32.7468,45.9654 33.2562,46.4292 33.762,46.8642 C38.1732,50.6574 42.264,52.095 44.1762,50.9892 C45.075,50.469 45.8022,49.1712 46.1634,47.2242 C46.5654,45.057 46.479,42.285 45.8718,39.2196 L45.8718,39.2196 Z M20.6634,50.7978 C22.743,50.064 25.1034,48.6048 27.4578,46.5474 C27.852,46.2024 28.2378,45.8478 28.614,45.4836 C26.8416,43.5828 25.0836,41.4126 23.4042,39.0516 C20.463,38.8134 17.7114,38.418 15.2256,37.8684 C15.0592005,38.5353688 14.9113436,39.2068273 14.7822,39.882 C13.6968,45.5952 14.4924,49.8546 16.407,50.958 C17.307,51.4758 18.795,51.4572 20.6634,50.7978 L20.6634,50.7978 Z M11.9094,34.269 C12.4044,34.4376 12.9042,34.5942 13.407,34.7382 C14.1738,32.2404 15.1842,29.6184 16.4022,26.9694 C15.1998,24.3594 14.2038,21.7782 13.4442,19.3098 C12.7416,19.5078 12.045,19.7274 11.355,19.9668 C5.8602,21.8808 2.565,24.6984 2.565,26.9064 C2.565,27.9444 3.3252,29.223 4.8306,30.5118 C6.5058,31.9446 8.9496,33.2586 11.9088,34.269 L11.9094,34.269 Z M14.8434,14.3076 C14.967,14.934 15.1062,15.5568 15.261,16.176 C17.7726,15.6072 20.505,15.183 23.3598,14.9184 C25.0242,12.5712 26.7666,10.4172 28.53,8.5248 C28.2315448,8.23927252 27.927894,7.95922572 27.6192,7.6848 C22.887,3.486 18.3972,1.8108 16.3668,2.9856 C14.4606,4.0884 13.7028,8.4828 14.844,14.3076 L14.8434,14.3076 Z M41.0232,20.7678 C41.6261586,21.8080679 42.2082748,22.8602779 42.7692,23.9238 C43.5042397,22.2167905 44.1526643,20.4737737 44.712,18.7014 C42.8841958,18.2884953 41.0371563,17.9659042 39.1776,17.7348 C39.8145158,18.732425 40.4298586,19.7436597 41.0232,20.7678 L41.0232,20.7678 Z M30.348,10.3764 C29.0775602,11.752119 27.8755098,13.1894532 26.7462,14.6832 C29.136,14.5716 31.53,14.5722 33.9192,14.685 C32.7414,13.1166 31.5432,11.6712 30.348,10.377 L30.348,10.3764 Z M19.602,20.7852 C20.1984,19.7526 20.8188,18.7332 21.4626,17.73 C19.614634,17.9569203 17.7785467,18.2718784 15.9606,18.6738 C16.5174096,20.4534111 17.1609793,22.2047059 17.889,23.9214 C18.4356,22.863 19.0068,21.8172 19.602,20.7852 L19.602,20.7852 Z M21.5184,36.2676 C20.2118318,34.2416573 19.0016834,32.1551324 17.892,30.015 C17.1488767,31.7664909 16.4922846,33.5534465 15.9246,35.3694 C17.6562,35.7456 19.5306,36.0462 21.5184,36.2676 L21.5184,36.2676 Z M30.4182,43.6194 C31.6062,42.3126 32.7996,40.845 33.9816,39.2394 C32.778,39.2934 31.5546,39.321 30.318,39.321 C29.1138,39.321 27.9288,39.2976 26.7666,39.252 C27.9118831,40.7664513 29.1305384,42.2239919 30.4182,43.6194 L30.4182,43.6194 Z M42.7932,29.9214 C42.2305246,31.0055287 41.6437791,32.0769943 41.0334,33.135 C40.4328,34.176 39.8112,35.205 39.1698,36.2214 C41.172,35.9814 43.0716,35.658 44.8314,35.2572 C44.2884,33.5574 43.6044,31.7694 42.7932,29.922 L42.7932,29.9214 Z M38.787,31.8414 C39.7144412,30.236299 40.5843932,28.59866 41.3952,26.9316 C40.5762127,25.2816535 39.703751,23.6587947 38.7792,22.0656 C37.8596022,20.476474 36.8841949,18.9203051 35.8548,17.4 C32.1724799,17.1215272 28.4744105,17.1209255 24.792,17.3982 C23.7520586,18.9209634 22.7703505,20.4826899 21.849,22.08 L21.849,22.0794 C20.9273715,23.6762366 20.0661621,25.3071906 19.2672,26.9688 C20.8752299,30.3000889 22.7325097,33.5052004 24.8232,36.5568 C26.592,36.6714 28.4292,36.7308 30.318,36.7308 C32.214,36.7308 34.0746,36.6642 35.8758,36.5352 C36.8968409,35.0023776 37.8677542,33.4367499 38.787,31.8408 L38.787,31.8414 Z M44.136,2.9088 C42.228,1.809 38.04,3.3474 33.5592,7.2444 C33.0834791,7.65917763 32.6181355,8.0857092 32.1636,8.5236 C33.8976,10.3914 35.6256,12.549 37.2936,14.922 C40.1568,15.1902 42.891,15.6222 45.4086,16.203 C45.507,15.8028 45.5982,15.4008 45.6816,14.997 C46.9584,8.8032 46.1676,4.08 44.136,2.9088 L44.136,2.9088 Z" id="Shape"></path>
                    <path d="M30.4038,21.5658 C33.384,21.5658 35.7996,23.9796 35.7996,26.9568 C35.7996,29.9346 33.384,32.3484 30.4038,32.3484 C27.4242,32.3484 25.0086,29.9346 25.0086,26.9568 C25.0086,23.9796 27.4242,21.5658 30.4038,21.5658" id="Path"></path>
                </g>
            </g>
        </g>
    </g>
</svg>